<svg xmlns="http://www.w3.org/2000/svg" width="18" height="18" viewBox="0 0 18 18">
    <path fill="#1C5BAE" fill-rule="evenodd" d="M9.579.24a.818.818 0 0 1 .068 1.08l-.068.077L2.794 8.18h14.388a.818.818 0 0 1 .095 1.632l-.095.005H2.793l6.786 6.785a.818.818 0 0 1 .068 1.08l-.068.077a.818.818 0 0 1-1.08.068l-.078-.068L.24 9.58l-.013-.014a.823.823 0 0 1-.054-.062l.067.076A.824.824 0 0 1 0 9v-.029l.005-.058L0 9a.823.823 0 0 1 .172-.501l.02-.026a.823.823 0 0 1 .032-.036l.016-.016L8.42.24a.818.818 0 0 1 1.158 0z"/>
</svg>
