<svg xmlns="http://www.w3.org/2000/svg" width="18" height="18" viewBox="0 0 18 18">
    <path fill="#1C5BAE" fill-rule="evenodd" d="M8.421.24a.818.818 0 0 0-.068 1.08l.068.077 6.785 6.784H.818a.818.818 0 0 0-.095 1.632l.095.005h14.389l-6.786 6.785a.818.818 0 0 0-.068 1.08l.068.077a.818.818 0 0 0 1.08.068l.078-.068L17.76 9.58l.013-.014a.823.823 0 0 0 .054-.062l-.067.076A.824.824 0 0 0 18 9v-.029a.823.823 0 0 0-.005-.058L18 9a.823.823 0 0 0-.172-.501l-.02-.026a.823.823 0 0 0-.032-.036l-.016-.016L9.58.24a.818.818 0 0 0-1.158 0z"/>
</svg>
